<?xml version="1.0" encoding="UTF-8" standalone="no"?>
<svg width="49px" height="51px" viewBox="0 0 49 51" version="1.1" xmlns="http://www.w3.org/2000/svg" xmlns:xlink="http://www.w3.org/1999/xlink">
    <!-- Generator: Sketch 39.1 (31720) - http://www.bohemiancoding.com/sketch -->
    <title>Logo</title>
    <desc>Created with Sketch.</desc>
    <defs></defs>
    <g id="Folder-View" stroke="none" stroke-width="1" fill="none" fill-rule="evenodd">
        <g id="Folderview-Desktop-HD" transform="translate(-44.000000, -70.000000)">
            <g id="Header" transform="translate(0.000000, 55.000000)">
                <g id="Logo-Group" transform="translate(44.000000, 15.000000)">
                    <g id="Logo">
                        <ellipse id="Oval" fill="#0992D6" cx="24.5" cy="25.1282051" rx="24.5" ry="25.1282051"></ellipse>
                        <path d="M48.1699668,18.6257913 L38.6588945,8.87064904 L9.23209766,39.0409856 L19.6948418,49.7720052 C21.2488691,50.0888562 22.8552461,50.2564103 24.5,50.2564103 C38.0308906,50.2564103 49,39.0060417 49,25.1282051 C49,22.8792308 48.7103066,20.7000461 48.1699668,18.6257913 L48.1699668,18.6257913 Z" id="Shape" fill="#05537A"></path>
                        <path d="M17.5212324,30.5395052 L17.5212324,30.5395052 C16.3473379,29.3355108 16.4087793,27.3649099 17.6554082,26.2403245 L36.9774863,8.81028245 C37.4628926,8.372502 38.1963613,8.39655048 38.6533437,8.8652504 L38.6533437,8.8652504 C39.1103262,9.33395032 39.1339648,10.0863241 38.7069375,10.5840785 L21.7129336,30.4016927 C20.6164629,31.6802865 18.6950312,31.7434014 17.5212324,30.5395052 L17.5212324,30.5395052 Z" id="Shape" fill="#FFC61B"></path>
                        <path d="M38.6534395,8.8652504 C38.6160195,8.82687099 38.5760156,8.79251603 38.5351504,8.76002604 L17.4631406,30.4734455 C17.4831426,30.4951382 17.5004648,30.5183033 17.521041,30.5394071 L17.521041,30.5394071 C18.6949355,31.7434014 20.6162715,31.6802865 21.7127422,30.4017909 L38.7071289,10.5839804 C39.1339648,10.0863241 39.1106133,9.33395032 38.6534395,8.8652504 L38.6534395,8.8652504 Z" id="Shape" fill="#EDB015"></path>
                        <path d="M12.2766055,29.67376 C13.957918,27.9493369 16.6839258,27.9493369 18.365334,29.67376 C20.0466465,31.3981831 20.0466465,34.1940885 18.365334,35.9186098 C16.6840215,37.6430329 9.23219336,39.0409856 9.23219336,39.0409856 C9.23219336,39.0409856 10.5951973,31.3982812 12.2766055,29.67376 L12.2766055,29.67376 Z" id="Shape" fill="#FFEDB5"></path>
                        <path d="M18.3004473,29.610645 L9.25142969,38.934976 C9.23889258,39.0031951 9.23209766,39.0406911 9.23209766,39.0406911 C9.23209766,39.0406911 16.6837344,37.6428365 18.3650469,35.9183153 C20.0463594,34.1938922 20.0463594,31.3979868 18.3650469,29.6736619 C18.3439922,29.6521655 18.3218848,29.631847 18.3004473,29.610645 L18.3004473,29.610645 Z" id="Shape" fill="#FDE085"></path>
                    </g>
                </g>
            </g>
        </g>
    </g>
</svg>