<?xml version="1.0" encoding="UTF-8" standalone="no"?>
<svg width="23px" height="34px" viewBox="0 0 23 34" version="1.1" xmlns="http://www.w3.org/2000/svg" xmlns:xlink="http://www.w3.org/1999/xlink">
    <!-- Generator: Sketch 39.1 (31720) - http://www.bohemiancoding.com/sketch -->
    <title>folder with document</title>
    <desc>Created with Sketch.</desc>
    <defs></defs>
    <g id="Symbols" stroke="none" stroke-width="1" fill="none" fill-rule="evenodd">
        <g id="Document" transform="translate(-4.000000, 0.000000)">
            <g id="folder-with-document">
                <polygon id="Shape" fill="#F4EFDC" points="26.9655169 34 26.9655172 8.79310345 18.1724138 0 4.68965517 0 4.68965517 34"></polygon>
                <g id="Group" transform="translate(0.000000, 6.448276)"></g>
                <path d="M14.6551724,9.37931034 L8.79310345,9.37931034 C8.46951724,9.37931034 8.20689655,9.11727586 8.20689655,8.79310345 C8.20689655,8.46893103 8.46951724,8.20689655 8.79310345,8.20689655 L14.6551724,8.20689655 C14.9787586,8.20689655 15.2413793,8.46893103 15.2413793,8.79310345 C15.2413793,9.11727586 14.9787586,9.37931034 14.6551724,9.37931034 L14.6551724,9.37931034 Z" id="Shape" fill="#CEC9AE"></path>
                <path d="M14.6551724,5.27586207 L8.79310345,5.27586207 C8.46951724,5.27586207 8.20689655,5.01382759 8.20689655,4.68965517 C8.20689655,4.36548276 8.46951724,4.10344828 8.79310345,4.10344828 L14.6551724,4.10344828 C14.9787586,4.10344828 15.2413793,4.36548276 15.2413793,4.68965517 C15.2413793,5.01382759 14.9787586,5.27586207 14.6551724,5.27586207 L14.6551724,5.27586207 Z" id="Shape" fill="#CEC9AE"></path>
                <path d="M22.862069,13.4827586 L8.79310345,13.4827586 C8.46951724,13.4827586 8.20689655,13.2207241 8.20689655,12.8965517 C8.20689655,12.5723793 8.46951724,12.3103448 8.79310345,12.3103448 L22.862069,12.3103448 C23.1856552,12.3103448 23.4482759,12.5723793 23.4482759,12.8965517 C23.4482759,13.2207241 23.1856552,13.4827586 22.862069,13.4827586 L22.862069,13.4827586 Z" id="Shape" fill="#CEC9AE"></path>
                <path d="M22.862069,16.4827586 L8.79310345,16.4827586 C8.46951724,16.4827586 8.20689655,16.2207241 8.20689655,15.8965517 C8.20689655,15.5723793 8.46951724,15.3103448 8.79310345,15.3103448 L22.862069,15.3103448 C23.1856552,15.3103448 23.4482759,15.5723793 23.4482759,15.8965517 C23.4482759,16.2207241 23.1856552,16.4827586 22.862069,16.4827586 L22.862069,16.4827586 Z" id="Shape" fill="#CEC9AE"></path>
                <path d="M22.862069,19.4827586 L8.79310345,19.4827586 C8.46951724,19.4827586 8.20689655,19.2207241 8.20689655,18.8965517 C8.20689655,18.5723793 8.46951724,18.3103448 8.79310345,18.3103448 L22.862069,18.3103448 C23.1856552,18.3103448 23.4482759,18.5723793 23.4482759,18.8965517 C23.4482759,19.2207241 23.1856552,19.4827586 22.862069,19.4827586 L22.862069,19.4827586 Z" id="Shape" fill="#CEC9AE"></path>
                <path d="M22.862069,23.4827586 L8.79310345,23.4827586 C8.46951724,23.4827586 8.20689655,23.2207241 8.20689655,22.8965517 C8.20689655,22.5723793 8.46951724,22.3103448 8.79310345,22.3103448 L22.862069,22.3103448 C23.1856552,22.3103448 23.4482759,22.5723793 23.4482759,22.8965517 C23.4482759,23.2207241 23.1856552,23.4827586 22.862069,23.4827586 L22.862069,23.4827586 Z" id="Shape" fill="#CEC9AE"></path>
                <path d="M22.862069,26.4827586 L8.79310345,26.4827586 C8.46951724,26.4827586 8.20689655,26.2207241 8.20689655,25.8965517 C8.20689655,25.5723793 8.46951724,25.3103448 8.79310345,25.3103448 L22.862069,25.3103448 C23.1856552,25.3103448 23.4482759,25.5723793 23.4482759,25.8965517 C23.4482759,26.2207241 23.1856552,26.4827586 22.862069,26.4827586 L22.862069,26.4827586 Z" id="Shape" fill="#CEC9AE"></path>
                <path d="M22.862069,29.4827586 L8.79310345,29.4827586 C8.46951724,29.4827586 8.20689655,29.2207241 8.20689655,28.8965517 C8.20689655,28.5723793 8.46951724,28.3103448 8.79310345,28.3103448 L22.862069,28.3103448 C23.1856552,28.3103448 23.4482759,28.5723793 23.4482759,28.8965517 C23.4482759,29.2207241 23.1856552,29.4827586 22.862069,29.4827586 L22.862069,29.4827586 Z" id="Shape" fill="#CEC9AE"></path>
                <polygon id="Shape" fill="#D1BF86" points="18.1724138 8.79310345 26.9655172 8.79310345 18.1724138 0"></polygon>
            </g>
        </g>
    </g>
</svg>