<?xml version="1.0" encoding="UTF-8" standalone="no"?>
<svg width="50px" height="50px" viewBox="0 0 50 50" version="1.1" xmlns="http://www.w3.org/2000/svg" xmlns:xlink="http://www.w3.org/1999/xlink">
    <!-- Generator: Sketch 39.1 (31720) - http://www.bohemiancoding.com/sketch -->
    <title>Document</title>
    <desc>Created with Sketch.</desc>
    <defs></defs>
    <g id="Symbols" stroke="none" stroke-width="1" fill="none" fill-rule="evenodd">
        <g id="Document">
            <polygon id="Shape" fill="#F4EFDC" points="42 50 42.0000005 13 29 0 8.01419878 0 8.01419878 50"></polygon>
            <path d="M22.6693712,13.7931034 L14.0486815,13.7931034 C13.5728195,13.7931034 13.1866126,13.4077586 13.1866126,12.9310345 C13.1866126,12.4543103 13.5728195,12.0689655 14.0486815,12.0689655 L22.6693712,12.0689655 C23.1452333,12.0689655 23.5314402,12.4543103 23.5314402,12.9310345 C23.5314402,13.4077586 23.1452333,13.7931034 22.6693712,13.7931034 L22.6693712,13.7931034 Z" id="Shape" fill="#CEC9AE"></path>
            <path d="M22.6693712,7.75862069 L14.0486815,7.75862069 C13.5728195,7.75862069 13.1866126,7.37327586 13.1866126,6.89655172 C13.1866126,6.41982759 13.5728195,6.03448276 14.0486815,6.03448276 L22.6693712,6.03448276 C23.1452333,6.03448276 23.5314402,6.41982759 23.5314402,6.89655172 C23.5314402,7.37327586 23.1452333,7.75862069 22.6693712,7.75862069 L22.6693712,7.75862069 Z" id="Shape" fill="#CEC9AE"></path>
            <path d="M34.7383367,19.8275862 L14.0486815,19.8275862 C13.5728195,19.8275862 13.1866126,19.4422414 13.1866126,18.9655172 C13.1866126,18.4887931 13.5728195,18.1034483 14.0486815,18.1034483 L34.7383367,18.1034483 C35.2141988,18.1034483 35.6004057,18.4887931 35.6004057,18.9655172 C35.6004057,19.4422414 35.2141988,19.8275862 34.7383367,19.8275862 L34.7383367,19.8275862 Z" id="Shape" fill="#CEC9AE"></path>
            <path d="M34.7383367,24.2393509 L14.0486815,24.2393509 C13.5728195,24.2393509 13.1866126,23.8540061 13.1866126,23.3772819 C13.1866126,22.9005578 13.5728195,22.515213 14.0486815,22.515213 L34.7383367,22.515213 C35.2141988,22.515213 35.6004057,22.9005578 35.6004057,23.3772819 C35.6004057,23.8540061 35.2141988,24.2393509 34.7383367,24.2393509 L34.7383367,24.2393509 Z" id="Shape" fill="#CEC9AE"></path>
            <path d="M34.7383367,28.6511156 L14.0486815,28.6511156 C13.5728195,28.6511156 13.1866126,28.2657708 13.1866126,27.7890467 C13.1866126,27.3123225 13.5728195,26.9269777 14.0486815,26.9269777 L34.7383367,26.9269777 C35.2141988,26.9269777 35.6004057,27.3123225 35.6004057,27.7890467 C35.6004057,28.2657708 35.2141988,28.6511156 34.7383367,28.6511156 L34.7383367,28.6511156 Z" id="Shape" fill="#CEC9AE"></path>
            <path d="M34.7383367,34.5334686 L14.0486815,34.5334686 C13.5728195,34.5334686 13.1866126,34.1481237 13.1866126,33.6713996 C13.1866126,33.1946755 13.5728195,32.8093306 14.0486815,32.8093306 L34.7383367,32.8093306 C35.2141988,32.8093306 35.6004057,33.1946755 35.6004057,33.6713996 C35.6004057,34.1481237 35.2141988,34.5334686 34.7383367,34.5334686 L34.7383367,34.5334686 Z" id="Shape" fill="#CEC9AE"></path>
            <path d="M34.7383367,38.9452333 L14.0486815,38.9452333 C13.5728195,38.9452333 13.1866126,38.5598884 13.1866126,38.0831643 C13.1866126,37.6064402 13.5728195,37.2210953 14.0486815,37.2210953 L34.7383367,37.2210953 C35.2141988,37.2210953 35.6004057,37.6064402 35.6004057,38.0831643 C35.6004057,38.5598884 35.2141988,38.9452333 34.7383367,38.9452333 L34.7383367,38.9452333 Z" id="Shape" fill="#CEC9AE"></path>
            <path d="M34.7383367,43.356998 L14.0486815,43.356998 C13.5728195,43.356998 13.1866126,42.9716531 13.1866126,42.494929 C13.1866126,42.0182049 13.5728195,41.63286 14.0486815,41.63286 L34.7383367,41.63286 C35.2141988,41.63286 35.6004057,42.0182049 35.6004057,42.494929 C35.6004057,42.9716531 35.2141988,43.356998 34.7383367,43.356998 L34.7383367,43.356998 Z" id="Shape" fill="#CEC9AE"></path>
            <polygon id="Shape" fill="#D1BF86" points="29 13 42 13 29 0"></polygon>
        </g>
    </g>
</svg>