<?xml version="1.0" encoding="UTF-8" standalone="no"?>
<svg width="34px" height="34px" viewBox="0 0 34 34" version="1.1" xmlns="http://www.w3.org/2000/svg" xmlns:xlink="http://www.w3.org/1999/xlink">
    <!-- Generator: Sketch 39.1 (31720) - http://www.bohemiancoding.com/sketch -->
    <title>Folder with document</title>
    <desc>Created with Sketch.</desc>
    <defs></defs>
    <g id="Symbols" stroke="none" stroke-width="1" fill="none" fill-rule="evenodd">
        <g id="Folder-with-document">
            <g id="folder-with-document">
                <path d="M27.1554483,34 L0.917413793,34 C0.31362069,34 -0.125448276,33.4266897 0.0322413793,32.8434138 L5.99162069,16.5052414 C6.09948276,16.1054483 6.46234483,15.8275862 6.8767931,15.8275862 L33.1148276,15.8275862 C33.7186207,15.8275862 34,16.4044138 34,16.9841724 L28.0406207,33.3223448 C27.9327586,33.7221379 27.5698966,34 27.1554483,34 L27.1554483,34 Z" id="Shape" fill="#0992D6"></path>
                <path d="M5.99162069,16.5052414 C6.09948276,16.1054483 6.46234483,15.8275862 6.8767931,15.8275862 L26.9655172,15.8275862 L26.9655172,8.79310345 L18.1724138,0 L4.68965517,0 L4.68965517,20.0746552 L5.99162069,16.5052414 L5.99162069,16.5052414 Z" id="Shape" fill="#F4EFDC"></path>
                <g id="Group" transform="translate(0.000000, 6.448276)" fill="#05537A">
                    <path d="M29.4674483,4.10344828 L26.9655172,4.10344828 L26.9655172,9.37931034 L30.4827586,9.37931034 L30.4827586,5.11875862 C30.4827586,4.55775862 30.0278621,4.10344828 29.4674483,4.10344828 L29.4674483,4.10344828 Z" id="Shape"></path>
                    <path d="M4.68965517,0 L1.01531034,0 C0.454896552,0 0,0.454310345 0,1.01531034 L0,26.0627586 C0.0404482759,26.063931 0.0808965517,26.0662759 0.120172414,26.0686207 L4.68965517,13.6070345 L4.68965517,0 L4.68965517,0 Z" id="Shape"></path>
                </g>
                <path d="M14.6551724,9.37931034 L8.79310345,9.37931034 C8.46951724,9.37931034 8.20689655,9.11727586 8.20689655,8.79310345 C8.20689655,8.46893103 8.46951724,8.20689655 8.79310345,8.20689655 L14.6551724,8.20689655 C14.9787586,8.20689655 15.2413793,8.46893103 15.2413793,8.79310345 C15.2413793,9.11727586 14.9787586,9.37931034 14.6551724,9.37931034 L14.6551724,9.37931034 Z" id="Shape" fill="#CEC9AE"></path>
                <path d="M14.6551724,5.27586207 L8.79310345,5.27586207 C8.46951724,5.27586207 8.20689655,5.01382759 8.20689655,4.68965517 C8.20689655,4.36548276 8.46951724,4.10344828 8.79310345,4.10344828 L14.6551724,4.10344828 C14.9787586,4.10344828 15.2413793,4.36548276 15.2413793,4.68965517 C15.2413793,5.01382759 14.9787586,5.27586207 14.6551724,5.27586207 L14.6551724,5.27586207 Z" id="Shape" fill="#CEC9AE"></path>
                <path d="M22.862069,13.4827586 L8.79310345,13.4827586 C8.46951724,13.4827586 8.20689655,13.2207241 8.20689655,12.8965517 C8.20689655,12.5723793 8.46951724,12.3103448 8.79310345,12.3103448 L22.862069,12.3103448 C23.1856552,12.3103448 23.4482759,12.5723793 23.4482759,12.8965517 C23.4482759,13.2207241 23.1856552,13.4827586 22.862069,13.4827586 L22.862069,13.4827586 Z" id="Shape" fill="#CEC9AE"></path>
                <polygon id="Shape" fill="#D1BF86" points="18.1724138 8.79310345 26.9655172 8.79310345 18.1724138 0"></polygon>
            </g>
        </g>
    </g>
</svg>