<?xml version="1.0" encoding="UTF-8" standalone="no"?>
<svg width="50px" height="50px" viewBox="0 0 50 50" version="1.1" xmlns="http://www.w3.org/2000/svg" xmlns:xlink="http://www.w3.org/1999/xlink">
    <!-- Generator: Sketch 39.1 (31720) - http://www.bohemiancoding.com/sketch -->
    <title>Photo</title>
    <desc>Created with Sketch.</desc>
    <defs>
        <path d="M1.46829523,7.33873756 C1.46829523,7.33873756 2.48293638,5.44274577 3.06186034,5.73020895 C3.64078429,6.01767213 3.16059337,6.97921963 3.50152852,7.08750256 C3.84246367,7.19578548 4.37770148,5.90352916 4.8403814,5.84390839 C5.30306132,5.78428761 5.56975791,7.18384581 5.87598111,7.08750256 C6.1822043,6.9911593 5.94457079,5.99939783 6.28962924,5.84390839 C6.63468768,5.68841894 7.67411496,7.17479427 7.67411496,7.17479427 L5.68329478,0.642237739 L0.232321515,0.762172627 L1.46829523,7.33873756 Z" id="path-1"></path>
        <rect id="path-3" x="9" y="2" width="34" height="25"></rect>
        <mask id="mask-4" maskContentUnits="userSpaceOnUse" maskUnits="objectBoundingBox" x="0" y="0" width="34" height="25" fill="white">
            <use xlink:href="#path-3"></use>
        </mask>
        <mask id="mask-6" maskContentUnits="userSpaceOnUse" maskUnits="objectBoundingBox" x="0" y="0" width="34" height="25" fill="white">
            <use xlink:href="#path-3"></use>
        </mask>
    </defs>
    <g id="Symbols" stroke="none" stroke-width="1" fill="none" fill-rule="evenodd">
        <g id="Photo">
            <rect id="Background" fill="#0992D6" x="9" y="2" width="34" height="25"></rect>
            <circle id="Sun" fill="#FFA900" cx="37" cy="8" r="3"></circle>
            <polygon id="Background-Mountain" fill="#5A9C68" points="43 8.29339008 43 26 20 26"></polygon>
            <g id="Front-Mountain" transform="translate(9.000000, 4.000000)">
                <polygon id="Triangle" fill="#17822E" points="11.5 2 23 23 0 23"></polygon>
                <g id="Snow" transform="translate(7.000000, 0.000000)">
                    <mask id="mask-2" fill="white">
                        <use xlink:href="#path-1"></use>
                    </mask>
                    <g id="Mask"></g>
                    <polygon id="Triangle" fill="#FFFFFF" mask="url(#mask-2)" points="4.5 2 16 23 -7 23"></polygon>
                </g>
            </g>
            <g id="wedding-couple" transform="translate(15.000000, 6.000000)">
                <g id="Capa_1">
                    <g id="Group">
                        <rect id="Rectangle-path" fill="#C79369" transform="translate(10.946717, 5.849159) rotate(197.115788) translate(-10.946717, -5.849159) " x="10.3178384" y="4.95865851" width="1.25775738" height="1.78098333"></rect>
                        <path d="M9.32765494,9.68785906 L9.60176557,7.32428659 L10.298558,5.81623037 C10.6721487,6.00282534 11.0737451,6.12454601 11.500644,6.18768454 C11.7353951,6.41702278 11.7847026,7.23554549 11.5196749,7.82483845 L10.563802,10.0698363 L9.32765494,9.68785906 L9.32765494,9.68785906 Z" id="Shape" fill="#E7B791"></path>
                        <ellipse id="Oval" fill="#5E3A1D" transform="translate(8.850581, 1.844115) rotate(269.008783) translate(-8.850581, -1.844115) " cx="8.85058106" cy="1.8441152" rx="1.66118208" ry="1.68345229"></ellipse>
                        <ellipse id="Oval" fill="#F5F0F0" transform="translate(10.403325, 3.223332) rotate(269.008783) translate(-10.403325, -3.223332) " cx="10.4033251" cy="3.22333234" rx="1.66129021" ry="1.68356078"></ellipse>
                        <ellipse id="Oval" fill="#E7B791" transform="translate(10.912358, 3.715261) rotate(269.008783) translate(-10.912358, -3.715261) " cx="10.9123578" cy="3.71526127" rx="2.11459546" ry="2.19184034"></ellipse>
                        <path d="M10.4368569,9.86534126 C11.6418623,12.2865195 9.65885844,15.7561011 5.980802,17.8043064 C4.37247004,17.0440404 2.99380711,15.7515447 2.13438648,14.0245649 C1.27496585,12.2976935 1.07351887,10.4153625 1.43424197,8.66885524 C5.27589975,6.94979482 9.23185138,7.4442715 10.4368569,9.86534126 L10.4368569,9.86534126 Z" id="Shape" fill="#F5F0F0"></path>
                        <path d="M9.60176557,7.32428659 C9.74893108,7.37256261 11.1278103,6.75593132 11.6848982,7.1878119 C11.6617583,7.40543371 11.6083419,7.62793736 11.5197831,7.82472997 L10.5736418,10.0469459 L10.5639101,10.0697278 L9.32765494,9.68775058 L9.60176557,7.32428659 L9.60176557,7.32428659 Z" id="Shape" fill="#F5F0F0"></path>
                        <ellipse id="Oval" fill="#F5F0F0" transform="translate(1.112826, 12.835817) rotate(-71.572299) translate(-1.112826, -12.835817) " cx="1.06826703" cy="12.8371487" rx="0.455434173" ry="0.909953604"></ellipse>
                        <path d="M12.4928488,2.24987972 C11.1993926,4.16453941 10.1327941,3.92999387 9.72222287,5.49641526 C9.13420961,5.12539503 8.74093925,4.48630725 8.72828799,3.7538135 C8.7080676,2.58238762 9.66967148,1.61567379 10.8759745,1.59484458 C11.510592,1.58377907 12.0864946,1.83687562 12.4928488,2.24987972 L12.4928488,2.24987972 Z" id="Shape" fill="#5E3A1D"></path>
                        <ellipse id="Oval" fill="#E7B791" transform="translate(10.461971, 4.094539) rotate(255.959588) translate(-10.461971, -4.094539) " cx="10.4643358" cy="3.99435486" rx="0.622923428" ry="0.399975604"></ellipse>
                        <path d="M9.99081885,0.430578746 C7.69207412,2.19400972 6.18365467,5.67747748 5.90175865,8.77679826 C5.88326835,8.76844488 5.86477805,8.76009151 5.84628775,8.75152115 C4.09987323,7.94178576 2.77051778,6.59830197 1.96451358,5.00833923 C3.26380878,2.48258101 6.63034146,-1.27839253 9.99081885,0.430578746 L9.99081885,0.430578746 Z" id="Shape" fill="#F5F0F0" opacity="0.5"></path>
                        <ellipse id="Oval" fill="#323232" transform="translate(12.859012, 3.454595) rotate(269.014511) translate(-12.859012, -3.454595) " cx="12.7435706" cy="3.18095929" rx="0.38452381" ry="0.226398284"></ellipse>
                        <path d="M12.9251542,4.55934399 C12.5853003,4.56271572 12.248474,4.54200368 12.0278879,4.49704731 C12.2091145,4.80901241 12.4593283,5.00906825 12.7231666,5.0943248 C12.8019937,4.92670176 12.8696833,4.74767907 12.9251542,4.55934399 L12.9251542,4.55934399 Z" id="Shape" fill="#C79369"></path>
                        <g transform="translate(10.380521, 11.824914)" id="Shape" fill="#323232">
                            <polygon points="0.0502806481 4.09250507 0.394135403 1.92453186 0.640240253 0.550238196 0.721554333 0.092104146 2.29647399 0.378505731 1.43997288 4.14696477"></polygon>
                            <polygon points="0.929402157 0.092104146 1.00746049 0.0980448092 0.640240253 0.770463657 0.640240253 0.77014254"></polygon>
                        </g>
                        <g transform="translate(10.380521, 15.513419)">
                            <path d="M1.81691555,4.21238149 L0.0502806481,0.404108297 L1.40277602,0.0905853497 L2.71569565,3.85025706 C2.41617437,3.97089288 2.11654496,4.09163719 1.81691555,4.21238149 L1.81691555,4.21238149 Z" id="Shape" fill="#323232"></path>
                            <ellipse id="Oval" fill="#1A1A1A" transform="translate(1.825428, 4.302414) rotate(248.124114) translate(-1.825428, -4.302414) " cx="1.82488694" cy="4.3021248" rx="0.499458124" ry="0.99763955"></ellipse>
                        </g>
                        <rect id="Rectangle-path" fill="#F5F0F0" transform="translate(15.399108, 6.548395) rotate(206.629112) translate(-15.399108, -6.548395) " x="14.8223829" y="6.04779662" width="1.1565286" height="0.766666667"></rect>
                        <polygon id="Shape" fill="#1A1A1A" points="11.0416303 11.5814726 13.4378006 12.7869629 13.2261893 13.2888166 10.8001751 12.0684638"></polygon>
                        <polygon id="Shape" fill="#323232" points="13.2969066 13.1219659 15.8616522 6.91800858 14.994338 6.69854252 12.3657955 9.10333947 10.8839762 11.8941276"></polygon>
                        <path d="M14.9745502,6.35323334 C13.9161696,8.16721853 13.507761,9.09249092 12.3426556,9.33105042 L12.7415488,8.52663082 L14.4840706,6.85986038 L14.9291354,6.18573181 L14.9745502,6.35323334 L14.9745502,6.35323334 Z" id="Shape" fill="#F5F0F0"></path>
                        <path d="M15.0636497,6.11326353 L14.4659047,7.32754115 L14.3170091,7.4889675 L12.8774687,8.98801943 L11.9820406,9.7271308 L12.7407918,8.45329466 L14.4841787,6.8597519 L14.8529035,6.26752983 C14.9090231,6.17748691 15.0286154,5.78194896 15.0286154,5.78194896 L15.0636497,6.11326353 L15.0636497,6.11326353 Z" id="Shape" fill="#323232"></path>
                        <path d="M14.5846319,7.16535541 C13.2831741,7.82256026 11.245348,8.4685911 9.43264959,8.5163247 L9.45633015,9.01470685 C11.1510583,9.19631149 13.5618262,8.87031272 14.6210718,8.48182633 C15.8861978,8.01783406 15.8975515,6.50240083 14.5846319,7.16535541 L14.5846319,7.16535541 Z" id="Shape" fill="#1A1A1A"></path>
                        <g transform="translate(12.347894, 1.410311)">
                            <ellipse id="Oval" fill="#E7B791" transform="translate(3.429213, 2.886513) rotate(-75.374546) translate(-3.429213, -2.886513) " cx="3.42921282" cy="2.88651289" rx="2.31875582" ry="2.40339385"></ellipse>
                            <path d="M2.12320099,0.914532333 C2.29848041,2.62469695 5.01352728,3.97555776 4.2392053,5.09284939 C4.96130028,4.85005896 5.54520458,4.27096363 5.74740848,3.49377388 C6.07071845,2.25074761 5.29520704,0.971161738 4.01505092,0.636050186 C3.3415065,0.459652847 2.66266368,0.579963209 2.12320099,0.914532333 L2.12320099,0.914532333 Z" id="Shape" fill="#5E3A1D"></path>
                            <ellipse id="Oval" fill="#E7B791" transform="translate(3.969713, 3.482778) rotate(-62.322848) translate(-3.969713, -3.482778) " cx="3.96893349" cy="3.42139684" rx="0.683076161" ry="0.43861711"></ellipse>
                            <ellipse id="Oval" fill="#323232" transform="translate(2.106730, 2.330209) rotate(-75.374546) translate(-2.106730, -2.330209) " cx="1.99034855" cy="2.07930735" rx="0.38452381" ry="0.248224132"></ellipse>
                            <path d="M1.0727139,3.24197915 C1.43419391,3.37604547 1.79675523,3.48313797 2.0397243,3.52006641 C1.79232188,3.78306118 1.49074613,3.9001083 1.19479315,3.889672 C1.13997102,3.68094599 1.09888146,3.46403151 1.0727139,3.24197915 L1.0727139,3.24197915 Z" id="Shape" fill="#C79369"></path>
                        </g>
                        <path d="M9.76028478,8.03953115 C9.57992323,7.9385312 9.47806436,7.99592 9.45611389,8.14085656 C9.21000904,7.95838404 9.06954762,8.32115938 8.99136932,8.46186501 C8.83933794,8.73557379 8.83868916,8.82388095 9.20946839,9.03119664 C9.58046388,9.23851233 10.0043351,9.18470355 10.1564747,8.91088628 C10.3083979,8.63696052 10.1311721,8.24684685 9.76028478,8.03953115 L9.76028478,8.03953115 Z" id="Shape" fill="#E7B791"></path>
                        <path d="M15.611979,6.81906986 C15.7732015,6.85964341 15.8016398,6.94957785 15.7349233,7.04678081 C15.9795144,7.0759634 15.8626254,7.36627046 15.8312675,7.49200509 C15.7700657,7.73685675 15.7218396,7.78892977 15.3904198,7.70561294 C15.059,7.62207915 14.8398197,7.35596434 14.9011296,7.11122117 C14.9622233,6.86636951 15.2805593,6.73553606 15.611979,6.81906986 L15.611979,6.81906986 Z" id="Shape" fill="#E7B791"></path>
                        <path d="M12.8305401,7.4383048 C13.3240474,7.4725862 14.7555861,7.16459601 15.2088688,6.98678836 L15.2937512,7.39708033 C14.8679336,7.67946795 13.1650956,8.13228621 12.6541794,8.22797038 L12.8305401,7.4383048 L12.8305401,7.4383048 Z" id="Shape" fill="#E7B791"></path>
                        <path d="M10.7637351,6.69431159 C11.2774628,6.90314608 12.2809131,7.35010613 12.970569,7.49287298 L12.6636948,8.22460733 C12.0118846,8.18815622 11.2047991,7.88537333 10.8219093,7.77938305 C9.75022865,7.48310929 9.63950309,6.23758785 10.7637351,6.69431159 L10.7637351,6.69431159 Z" id="Shape" fill="#E7B791"></path>
                        <path d="M17.5015582,4.61768313 C16.3885718,3.00624027 12.8564914,3.06731758 13.7813309,0.936012452 C14.2388308,1.83969624 14.5533822,1.64962973 15.5360715,1.9026178 C16.5269787,2.15777558 17.6010382,2.989642 17.5015582,4.61768313 L17.5015582,4.61768313 Z" id="Shape" fill="#5E3A1D"></path>
                        <path d="M17.5382145,4.73680015 C16.707989,2.96186972 13.2150519,2.43235225 14.4806104,0.485255412 C14.7818618,1.45272864 15.1234458,1.31788123 16.0504479,1.73142776 C16.9852355,2.14855431 17.9062904,3.14813924 17.5382145,4.73680015 L17.5382145,4.73680015 Z" id="Shape" fill="#5E3A1D"></path>
                        <path d="M13.9877519,2.39459931 C14.4094606,2.73513514 14.7829431,3.09899533 15.1465857,3.74665346 C15.5462357,4.45842649 17.7552322,2.83570115 16.9373337,2.26116221 C16.1192189,1.68651479 15.065596,1.20375454 13.9877519,2.39459931 L13.9877519,2.39459931 Z" id="Shape" fill="#5E3A1D"></path>
                    </g>
                </g>
            </g>
            <mask id="mask-5" fill="white">
                <use xlink:href="#path-3"></use>
            </mask>
            <g id="Border" stroke="#FFFFFF" mask="url(#mask-4)" stroke-width="4">
                <use mask="url(#mask-6)" xlink:href="#path-3"></use>
            </g>
        </g>
    </g>
</svg>