<?xml version="1.0" encoding="UTF-8" standalone="no"?>
<svg width="50px" height="38px" viewBox="0 0 50 38" version="1.1" xmlns="http://www.w3.org/2000/svg" xmlns:xlink="http://www.w3.org/1999/xlink">
    <!-- Generator: Sketch 39.1 (31720) - http://www.bohemiancoding.com/sketch -->
    <title>photo</title>
    <desc>Created with Sketch.</desc>
    <defs>
        <path d="M1.81377646,9.06549934 C1.81377646,9.06549934 3.06715671,6.72339183 3.78229806,7.07849341 C4.49743942,7.43359499 3.90426239,8.62138895 4.32541758,8.75515022 C4.74657276,8.88891148 5.40774889,7.29259485 5.97929467,7.21894565 C6.55084045,7.14529646 6.88028919,8.87416247 7.2585649,8.75515022 C7.63684061,8.63613796 7.34329333,7.41102085 7.769542,7.21894565 C8.19579066,7.02687046 9.47978906,8.86298116 9.47978906,8.86298116 L7.02054062,0.793352501 L0.286985401,0.941507363 L1.81377646,9.06549934 Z" id="path-1"></path>
        <rect id="path-3" x="0" y="0" width="42" height="30.8823529"></rect>
        <mask id="mask-4" maskContentUnits="userSpaceOnUse" maskUnits="objectBoundingBox" x="0" y="0" width="42" height="30.8823529" fill="white">
            <use xlink:href="#path-3"></use>
        </mask>
        <mask id="mask-6" maskContentUnits="userSpaceOnUse" maskUnits="objectBoundingBox" x="0" y="0" width="42" height="30.8823529" fill="white">
            <use xlink:href="#path-3"></use>
        </mask>
    </defs>
    <g id="Symbols" stroke="none" stroke-width="1" fill="none" fill-rule="evenodd">
        <g id="photo">
            <g id="Group-2" transform="translate(4.000000, 4.000000)">
                <rect id="Background" fill="#0992D6" x="0" y="0" width="42" height="30.8823529"></rect>
                <ellipse id="Sun" fill="#FFA900" cx="34.5882353" cy="7.41176471" rx="3.70588235" ry="3.70588235"></ellipse>
                <polygon id="Background-Mountain" fill="#5A9C68" points="42 7.77418775 42 29.6470588 13.5882353 29.6470588"></polygon>
                <g id="Front-Mountain" transform="translate(0.000000, 2.470588)">
                    <polygon id="Triangle" fill="#17822E" points="14.2058824 2.47058824 28.4117647 28.4117647 0 28.4117647"></polygon>
                    <g id="Snow" transform="translate(8.647059, 0.000000)">
                        <mask id="mask-2" fill="white">
                            <use xlink:href="#path-1"></use>
                        </mask>
                        <g id="Mask"></g>
                        <polygon id="Triangle" fill="#FFFFFF" mask="url(#mask-2)" points="5.55882353 2.47058824 19.7647059 28.4117647 -8.64705882 28.4117647"></polygon>
                    </g>
                </g>
                <g id="wedding-couple" transform="translate(7.411765, 4.941176)">
                    <g id="Capa_1">
                        <g id="Group">
                            <rect id="Rectangle-path" fill="#C79369" transform="translate(13.522415, 7.225432) rotate(197.115788) translate(-13.522415, -7.225432) " x="12.7455651" y="6.12540169" width="1.55370029" height="2.20003823"></rect>
                            <path d="M11.5223973,11.9673553 L11.8610045,9.04764814 L12.7217482,7.18475516 C13.1832425,7.41525483 13.6793321,7.56561566 14.2066779,7.64361032 C14.4966646,7.9269105 14.5575738,8.93802679 14.2301867,9.66597691 L13.0494024,12.4392096 L11.5223973,11.9673553 L11.5223973,11.9673553 Z" id="Shape" fill="#E7B791"></path>
                            <ellipse id="Oval" fill="#5E3A1D" transform="translate(10.933071, 2.278025) rotate(269.008783) translate(-10.933071, -2.278025) " cx="10.9330707" cy="2.27802466" rx="2.05204845" ry="2.07955871"></ellipse>
                            <ellipse id="Oval" fill="#F5F0F0" transform="translate(12.851166, 3.981763) rotate(269.008783) translate(-12.851166, -3.981763) " cx="12.8511663" cy="3.98176347" rx="2.05218203" ry="2.07969272"></ellipse>
                            <ellipse id="Oval" fill="#E7B791" transform="translate(13.479971, 4.589440) rotate(269.008783) translate(-13.479971, -4.589440) " cx="13.4799714" cy="4.5894404" rx="2.61214734" ry="2.70756748"></ellipse>
                            <path d="M12.8925879,12.186598 C14.381124,15.1774653 11.931531,19.463419 7.38804952,21.993555 C5.40128652,21.0544028 3.69823231,19.4577906 2.63659506,17.3244625 C1.57495782,15.1912684 1.32611155,12.866036 1.77171067,10.7085859 C6.51728792,8.58504066 11.4040517,9.19586479 12.8925879,12.186598 L12.8925879,12.186598 Z" id="Shape" fill="#F5F0F0"></path>
                            <path d="M11.8610045,9.04764814 C12.0427972,9.10728323 13.7461186,8.34556222 14.434286,8.87906175 C14.4057015,9.1478887 14.3397165,9.42274615 14.2303203,9.6658429 L13.0615576,12.4109332 L13.049536,12.4390756 L11.5223973,11.9672213 L11.8610045,9.04764814 L11.8610045,9.04764814 Z" id="Shape" fill="#F5F0F0"></path>
                            <ellipse id="Oval" fill="#F5F0F0" transform="translate(1.374667, 15.856009) rotate(-71.572299) translate(-1.374667, -15.856009) " cx="1.31962398" cy="15.8576543" rx="0.562595155" ry="1.12406033"></ellipse>
                            <path d="M15.4323426,2.77926319 C13.8345438,5.14443103 12.5169809,4.85469831 12.0098047,6.78968944 C11.2834354,6.33137033 10.7976308,5.54190896 10.7820028,4.63706373 C10.7570247,3.19000824 11.9448883,1.99583233 13.4350273,1.97010213 C14.2189666,1.95643297 14.9303757,2.26908165 15.4323426,2.77926319 L15.4323426,2.77926319 Z" id="Shape" fill="#5E3A1D"></path>
                            <ellipse id="Oval" fill="#E7B791" transform="translate(12.923611, 5.057960) rotate(255.959588) translate(-12.923611, -5.057960) " cx="12.9265325" cy="4.93420306" rx="0.769493646" ry="0.494087511"></ellipse>
                            <path d="M12.3415998,0.531891392 C9.50197391,2.7102473 7.63863224,7.01335453 7.29040775,10.8419273 C7.26756679,10.8316084 7.24472582,10.8212895 7.22188486,10.8107026 C5.06454929,9.81044124 3.42240431,8.15084361 2.42675207,6.18677199 C4.03176379,3.06671772 8.19042181,-1.57919077 12.3415998,0.531891392 L12.3415998,0.531891392 Z" id="Shape" fill="#F5F0F0" opacity="0.5"></path>
                            <ellipse id="Oval" fill="#323232" transform="translate(15.884661, 4.267441) rotate(269.014511) translate(-15.884661, -4.267441) " cx="15.7420578" cy="3.9294203" rx="0.475" ry="0.279668468"></ellipse>
                            <path d="M15.966367,5.63213082 C15.5465474,5.63629589 15.1304679,5.61071043 14.8579792,5.55517609 C15.0818474,5.94054474 15.390935,6.18767255 15.7168528,6.29298945 C15.8142275,6.0859257 15.8978441,5.86478003 15.966367,5.63213082 L15.966367,5.63213082 Z" id="Shape" fill="#C79369"></path>
                            <g transform="translate(12.822996, 14.607247)" id="Shape" fill="#323232">
                                <polygon points="0.0621113888 5.05544744 0.486873145 2.37736289 0.790885018 0.679706007 0.891331823 0.11377571 2.83682081 0.467565903 1.77879003 5.12272118"></polygon>
                                <polygon points="1.14808502 0.11377571 1.24451002 0.121114176 0.790885018 0.951749224 0.790885018 0.95135255"></polygon>
                            </g>
                            <g transform="translate(12.822996, 19.163635)">
                                <path d="M2.24442509,5.20353008 L0.0621113888,0.499192602 L1.73284096,0.11189955 L3.35468286,4.7561999 C2.98468599,4.90522062 2.61455554,5.05437535 2.24442509,5.20353008 L2.24442509,5.20353008 Z" id="Shape" fill="#323232"></path>
                                <ellipse id="Oval" fill="#1A1A1A" transform="translate(2.254941, 5.314746) rotate(248.124114) translate(-2.254941, -5.314746) " cx="2.2542721" cy="5.31438946" rx="0.616977682" ry="1.23237827"></ellipse>
                            </g>
                            <rect id="Rectangle-path" fill="#F5F0F0" transform="translate(19.022428, 8.089194) rotate(206.629112) translate(-19.022428, -8.089194) " x="18.3100024" y="7.47080759" width="1.42865298" height="0.947058824"></rect>
                            <polygon id="Shape" fill="#1A1A1A" points="13.639661 14.3065249 16.599636 15.79566 16.3382339 16.4155969 13.3413928 14.9081023"></polygon>
                            <polygon id="Shape" fill="#323232" points="16.4255905 16.2094873 19.5938057 8.54577531 18.5224176 8.27467017 15.2753945 11.2453017 13.4449117 14.6927459"></polygon>
                            <path d="M18.4979738,7.84811177 C17.1905624,10.088917 16.6860576,11.2319005 15.2468099,11.5265917 L15.7395602,10.5328969 L17.8920872,8.47394518 L18.4418731,7.64119811 L18.4979738,7.84811177 L18.4979738,7.84811177 Z" id="Shape" fill="#F5F0F0"></path>
                            <path d="M18.6080378,7.55167847 L17.8696469,9.05166848 L17.6857171,9.2510775 L15.9074613,11.1028475 L14.8013443,12.0158675 L15.7386252,10.4423052 L17.8922207,8.47381117 L18.3477043,7.74224274 C18.4170286,7.63101324 18.5647602,7.14240754 18.5647602,7.14240754 L18.6080378,7.55167847 L18.6080378,7.55167847 Z" id="Shape" fill="#323232"></path>
                            <path d="M18.01631,8.85132139 C16.4086268,9.66316267 13.8913123,10.4612008 11.6520965,10.5201658 L11.681349,11.1358143 C13.7748367,11.3601495 16.7528441,10.9574451 18.061324,10.4775502 C19.6241267,9.90438326 19.6381519,8.0323775 18.01631,8.85132139 L18.01631,8.85132139 Z" id="Shape" fill="#1A1A1A"></path>
                            <g transform="translate(15.253281, 1.742149)">
                                <ellipse id="Oval" fill="#E7B791" transform="translate(4.236086, 3.565692) rotate(-75.374546) translate(-4.236086, -3.565692) " cx="4.23608642" cy="3.56569239" rx="2.86434543" ry="2.96889829"></ellipse>
                                <path d="M2.62277769,1.12971641 C2.83929933,3.2422727 6.19318075,4.91098311 5.23666536,6.2911669 C6.12866505,5.9912493 6.8499586,5.27589625 7.09973988,4.31583832 C7.49912279,2.78033528 6.5411381,1.19967038 4.95976879,0.785709054 C4.12774332,0.567806458 3.28917279,0.716425141 2.62277769,1.12971641 L2.62277769,1.12971641 Z" id="Shape" fill="#5E3A1D"></path>
                                <ellipse id="Oval" fill="#E7B791" transform="translate(4.903764, 4.302255) rotate(-62.322848) translate(-4.903764, -4.302255) " cx="4.90280019" cy="4.2264314" rx="0.843799964" ry="0.541821136"></ellipse>
                                <ellipse id="Oval" fill="#323232" transform="translate(2.602431, 2.878493) rotate(-75.374546) translate(-2.602431, -2.878493) " cx="2.45866586" cy="2.56855614" rx="0.475" ry="0.30662981"></ellipse>
                                <path d="M1.32511717,4.00479778 C1.7716513,4.17040911 2.21952117,4.30269984 2.51965943,4.34831733 C2.21404468,4.67319322 1.84150992,4.81778084 1.47592095,4.80488894 C1.4081995,4.54705093 1.35744181,4.27909775 1.32511717,4.00479778 L1.32511717,4.00479778 Z" id="Shape" fill="#C79369"></path>
                            </g>
                            <path d="M12.0568224,9.93118554 C11.8340228,9.8064209 11.7081972,9.87731295 11.6810819,10.0563522 C11.37707,9.83094499 11.2035588,10.2790792 11.1069856,10.4528921 C10.9191822,10.7910029 10.9183807,10.9000882 11.3764021,11.1561841 C11.8346907,11.4122799 12.3582964,11.3458103 12.5462334,11.0075654 C12.7339033,10.6691865 12.5149773,10.1872814 12.0568224,9.93118554 L12.0568224,9.93118554 Z" id="Shape" fill="#E7B791"></path>
                            <path d="M19.2853859,8.42355688 C19.484543,8.47367716 19.5196727,8.58477264 19.4372582,8.70484689 C19.7394001,8.74089596 19.5950078,9.09951057 19.5562717,9.25482982 C19.4806694,9.55729363 19.4210959,9.62161912 19.011695,9.51869834 C18.6022942,9.41550953 18.3315419,9.08677948 18.4072778,8.78444968 C18.4827464,8.48198587 18.875985,8.32036807 19.2853859,8.42355688 L19.2853859,8.42355688 Z" id="Shape" fill="#E7B791"></path>
                            <path d="M15.8494907,9.18849416 C16.4591173,9.23084177 18.2274887,8.85038331 18.7874262,8.63073856 L18.8922809,9.13756981 C18.3662709,9.48640158 16.2627652,10.0457653 15.6316333,10.1639634 L15.8494907,9.18849416 L15.8494907,9.18849416 Z" id="Shape" fill="#E7B791"></path>
                            <path d="M13.2963787,8.26944373 C13.9309834,8.52741574 15.1705398,9.07954286 16.0224676,9.25590191 L15.6433878,10.1598091 C14.8382104,10.1147812 13.8412225,9.74075529 13.3682409,9.60982612 C12.0444001,9.24384088 11.9076215,7.70525558 13.2963787,8.26944373 L13.2963787,8.26944373 Z" id="Shape" fill="#E7B791"></path>
                            <path d="M21.6195719,5.70419681 C20.2447063,3.71359092 15.8815482,3.78903936 17.023997,1.15625068 C17.5891439,2.27256594 17.9777074,2.03777791 19.1916177,2.35029258 C20.4156796,2.66548748 21.742459,3.69308717 21.6195719,5.70419681 L21.6195719,5.70419681 Z" id="Shape" fill="#5E3A1D"></path>
                            <path d="M21.6648531,5.85134136 C20.6392806,3.65878025 16.3244759,3.00467042 17.8878128,0.599433157 C18.2599469,1.79454715 18.6819036,1.62797093 19.8270239,2.13882253 C20.9817614,2.6540965 22.1195352,3.88887788 21.6648531,5.85134136 L21.6648531,5.85134136 Z" id="Shape" fill="#5E3A1D"></path>
                            <path d="M17.2789877,2.95803444 C17.7999219,3.37869634 18.2612826,3.8281707 18.7104882,4.62821898 C19.2041736,5.50746802 21.9329339,3.50292495 20.9225887,2.79320038 C19.9119763,2.0833418 18.6104421,1.4869909 17.2789877,2.95803444 L17.2789877,2.95803444 Z" id="Shape" fill="#5E3A1D"></path>
                        </g>
                    </g>
                </g>
                <mask id="mask-5" fill="white">
                    <use xlink:href="#path-3"></use>
                </mask>
                <g id="Border" stroke="#FFFFFF" mask="url(#mask-4)" stroke-width="4">
                    <use mask="url(#mask-6)" xlink:href="#path-3"></use>
                </g>
            </g>
        </g>
    </g>
</svg>