<?xml version="1.0" encoding="UTF-8" standalone="no"?>
<svg width="34px" height="28px" viewBox="0 0 34 28" version="1.1" xmlns="http://www.w3.org/2000/svg" xmlns:xlink="http://www.w3.org/1999/xlink">
    <!-- Generator: Sketch 39.1 (31720) - http://www.bohemiancoding.com/sketch -->
    <title>Folder empty</title>
    <desc>Created with Sketch.</desc>
    <defs></defs>
    <g id="Symbols" stroke="none" stroke-width="1" fill="none" fill-rule="evenodd">
        <g id="Folder-empty">
            <g id="Shape">
                <path d="M26.5046641,27.7083333 L0.895427842,27.7083333 C0.306104725,27.7083333 -0.12244189,27.1378333 0.0314687101,26.5574167 L5.84803065,10.2993333 C5.95330779,9.9015 6.30747382,9.625 6.71198978,9.625 L32.3212261,9.625 C32.9105492,9.625 33.1851852,10.199 33.1851852,10.7759167 L27.3686232,27.034 C27.2633461,27.4318333 26.9091801,27.7083333 26.5046641,27.7083333 L26.5046641,27.7083333 Z" fill="#0992D6"></path>
                <path d="M28.7612567,4.375 L14.3039591,4.375 L11.4431673,0.291666667 L0.990978289,0.291666667 C0.443994891,0.291666667 0,0.74375 0,1.302 L0,26.2266667 C0.0394789272,26.2278333 0.0789578544,26.2301667 0.117292465,26.2325 L5.84745849,10.2993333 C5.95273563,9.90091667 6.30690166,9.625 6.71141762,9.625 L29.752235,9.625 L29.752235,5.38533333 C29.752235,4.82708333 29.3082401,4.375 28.7612567,4.375 L28.7612567,4.375 Z" fill="#05537A"></path>
            </g>
        </g>
    </g>
</svg>